<svg width="280" height="349" version="1.1" viewBox="0 0 74.083 92.34" xmlns="http://www.w3.org/2000/svg">
 <g>
  <g transform="translate(-640.42,-172.99)" style="fill:#ffffff">
   <g style="fill:#ffffff">
    <path d="m644.02 176.9h44.386l22.414 20.826v24.899c0 26.166-21.414 32.228-33.117 38.409-12.815-5.8945-32.794-12.329-33.117-38.409z" style="fill:#ffffff"/>
   </g>
   <g style="fill:#ffffff">
    <path d="m644.02 176.9h44.386l22.414 20.826v24.899c0 26.166-21.414 32.228-33.117 38.409-12.815-5.8945-32.794-12.329-33.117-38.409z" style="fill:#ffffff"/>
   </g>
  </g>
  <g transform="translate(-125.38,-26.449)">
   <path d="m128.98 30.355 0.55499 39.644h33.141l4e-3 -39.644z" style="fill-opacity:.39608;fill:#0087ff"/>
   <path d="m162.69 70 3e-3 43.946c12.825-5.8796 32.762-17.077 33.127-43.157l0.0108-0.78911z" style="fill-opacity:.39608;fill:#0087ff"/>
   <path d="m128.98 30.355h44.386l22.414 20.826v24.899c0 26.166-21.414 32.228-33.117 38.409-12.815-5.8945-32.794-12.329-33.117-38.409z" style="fill:none;stroke-width:5.2922;stroke:#0087ff"/>
   <path d="m171.32 29.811v23.04h24.575" style="fill:none;stroke-width:5.2917;stroke:#0087ff"/>
  </g>
 </g>
 <g transform="matrix(1.0488 0 0 1.0488 -2.1663 -2.9593)">
  <path d="m37.068 37.356-6.5375-0.23339-4.0397 13.886 6.3037 6.8702 3.5195 6.981 8.1771-0.20624 2.43-2.2187 6.2799-21.08-10.587-3.4744z" style="fill:#ffffff"/>
  <g transform="matrix(1.225 0 0 1.225 -93.798 5.4547)" style="stroke-width:.76155" aria-label="">
   <path d="m120 29.307c-0.25498-0.33998-0.61196-0.57796-1.0029-0.73095 0.017 0.30598 0.017 0.64596-0.085 0.96894l-5.0997 16.778c-0.18699 0.61196-0.91794 0.96894-1.5469 0.96894h-15.69c-0.93494 0-2.1079-0.20399-2.4478-1.1899-0.13599-0.37398-0.11899-0.52697 0.017-0.73095 0.15299-0.20399 0.42498-0.25498 0.64596-0.25498h14.772c2.1589 0 2.6008-0.57796 3.3998-3.1958l4.6577-15.401c0.23799-0.79895 0.13599-1.5979-0.30598-2.2099-0.42497-0.59496-1.1389-0.95194-1.9379-0.95194h-12.936c-0.28898 0-0.57797 0.085-0.86695 0.15299l0.017-0.051c-2.1589-0.61196-2.2949 1.7169-3.0088 2.7708-0.27199 0.39098-0.67996 0.73095-0.74796 1.0539-0.051 0.30598 0.119 0.59496 0.085 0.88394-0.10199 0.90094-0.78195 2.5158-1.1899 3.0768-0.25499 0.33998-0.62896 0.50997-0.74796 0.90094-0.10199 0.27198 0.068 0.66296 0.034 1.0199-0.085 0.79895-0.67995 2.3119-1.1389 3.0938-0.16999 0.30598-0.49297 0.54397-0.57797 0.86695-0.085 0.28898 0.085 0.66296 0 0.98594-0.18699 0.88394-0.76495 2.2609-1.2749 3.1108-0.27198 0.45897-0.62896 0.74795-0.69696 1.1559-0.034 0.20399 0.119 0.42497 0.102 0.69696-0.017 0.40797-0.085 0.74795-0.11899 1.0879-0.23799 0.64596-0.23799 1.3939 0.034 2.1589 0.62896 1.7679 2.4818 3.1448 4.2157 3.1448h15.69c1.4619 0 2.9578-1.1219 3.3828-2.5668l4.6747-15.401c0.23799-0.78195 0.119-1.5809-0.30598-2.1929zm-18.087 0.034 0.35698-1.0879c0.10199-0.30598 0.42497-0.54397 0.71395-0.54397h10.335c0.30598 0 0.47597 0.23798 0.37398 0.54397l-0.35698 1.0879c-0.102 0.30598-0.42498 0.54397-0.71396 0.54397h-10.335c-0.30598 0-0.47597-0.23798-0.37398-0.54397zm-1.4109 4.3517 0.35698-1.0879c0.10199-0.30598 0.42497-0.54397 0.71395-0.54397h10.335c0.30598 0 0.47597 0.23798 0.37397 0.54397l-0.35697 1.0879c-0.102 0.30598-0.42498 0.54397-0.71396 0.54397h-10.335c-0.30599 0-0.47598-0.23798-0.37398-0.54397z" style="fill:#424242;font-variant-caps:normal;font-variant-east-asian:normal;font-variant-ligatures:normal;font-variant-numeric:normal;stroke-width:.76155"/>
  </g>
 </g>
</svg>
